<svg viewBox="0 0 395 90" fill="none" xmlns="http://www.w3.org/2000/svg">
<path d="M12.8724 16.8203C22.7388 22.4428 29.4342 32.9794 29.4342 45.0652C29.4342 57.1072 22.623 67.7791 12.8724 73.3132V16.8203ZM5 5.48692V84.4714C7.81952 83.853 10.404 83.0548 12.8724 81.9924C27.321 75.7922 37.3068 61.4943 37.3068 44.9769C37.3068 28.2423 27.2052 13.9428 12.8724 7.83337C10.404 6.90361 7.81952 6.10678 5 5.39839V5.48692ZM53.4732 84.0697V5.92966H45.6017V84.0697H53.4732ZM70.6883 45.0652C73.7435 47.9872 78.9129 51.9715 78.9129 59.7236C78.9129 69.0635 71.2856 76.6802 61.766 76.6802V84.5613C75.6305 84.5613 86.7887 73.4031 86.7887 59.7236C86.7887 55.4691 85.7315 51.4842 84.5528 49.4043C82.2059 44.7111 79.3834 42.0106 76.4551 39.5754C71.3966 35.3257 69.6365 31.9613 69.6365 27.4896C69.6365 19.654 75.9793 13.3233 83.8551 13.3233V5.48692C71.6398 5.48692 61.766 15.315 61.766 27.4896C61.766 32.9794 64.1181 38.7345 70.6883 45.0652ZM123.863 13.456V5.48692C121.04 6.19532 118.461 6.9922 116.109 7.92185C101.779 14.0311 91.5564 28.3306 91.5564 45.0652C91.5564 61.5789 101.663 75.8821 116.109 82.077C118.461 83.1447 121.04 83.9376 123.863 84.5613V76.4582C120.691 75.528 118.582 74.3334 116.109 73.3132C106.245 67.7791 99.4269 57.1072 99.4269 45.0652C99.4269 32.9794 106.124 22.4428 116.109 16.8203C118.582 15.315 121.394 14.474 123.863 13.456ZM161.767 5C139.556 5 121.585 22.9301 121.585 45.0652C121.585 67.0708 139.556 85 161.767 85C183.967 85 201.938 67.0708 201.938 45.0652C201.938 22.9301 183.967 5 161.767 5ZM161.767 12.8365C179.617 12.8365 194.068 27.2681 194.068 45.0652C194.068 62.8633 179.617 77.1665 161.767 77.1665C143.906 77.1665 129.46 62.8633 129.46 45.0652C129.46 27.2681 143.906 12.8365 161.767 12.8365ZM218.102 13.3228C222.695 13.3228 226.448 17.0857 226.448 21.6457C226.448 26.2052 222.695 29.8354 218.102 29.8354V13.3228ZM216.575 5.92966H210.237V84.5613C212.822 84.5613 215.406 84.1384 218.102 83.4988C231.85 79.9521 242.073 67.3351 242.073 52.3257C242.073 43.073 238.082 34.7501 231.85 28.9062C233.024 26.7813 233.732 24.214 233.732 21.6462C233.732 12.9691 227.151 5.92966 216.575 5.92966ZM226.327 34.5291C231.496 39.7969 234.203 45.995 234.203 52.5472C234.203 63.2175 227.384 72.2508 218.102 75.528V37.2296C220.93 36.7856 223.393 36.1672 226.327 34.5291ZM282.086 84.0697V68.4874H285.95V61.0926H282.086V24.214C282.086 17.3072 281.378 14.474 279.152 11.1984C276.309 7.21356 271.874 5 266.329 5C260.235 5 255.092 8.05468 252.486 13.1906C251.191 15.8906 250.72 18.4584 250.72 24.7896V61.0926H246.841V68.4874H250.72V84.0697H258.596V68.4874H274.226V84.0697H282.086ZM274.226 61.0926H258.596V21.0706C258.596 15.7579 261.879 12.2609 266.816 12.2609C271.382 12.2609 274.226 15.6691 274.226 20.9379V61.0926ZM300.602 13.3233C305.174 13.3233 308.948 17.0862 308.948 21.6462C308.948 26.2057 305.174 29.8359 300.602 29.8359V13.3233ZM299.09 5.92966H292.737V84.5613C295.321 84.5613 297.896 84.1384 300.602 83.4988C314.361 79.9521 324.578 67.3351 324.578 52.3257C324.578 43.073 320.582 34.7501 314.361 28.9062C315.518 26.7813 316.227 24.214 316.227 21.6462C316.227 12.9691 309.662 5.92966 299.09 5.92966ZM308.805 34.5291C314.007 39.7969 316.713 45.995 316.713 52.5472C316.713 63.2175 309.884 72.2508 300.602 75.528V37.2296C303.44 36.7856 305.882 36.1672 308.805 34.5291ZM356.726 84.0697V76.6802H341.101V28.995H360.722V21.6462H341.101V13.3233H356.726V5.92966H333.231V21.6462H329.325V28.995H333.231V84.0697H356.726ZM373.603 45.0652C376.611 47.9872 381.807 51.9715 381.807 59.7236C381.807 69.0635 374.174 76.6802 364.67 76.6802V84.5613C378.524 84.5613 389.667 73.4031 389.667 59.7236C389.667 55.4691 388.609 51.4842 387.452 49.4043C385.1 44.7111 382.251 42.0106 379.322 39.5754C374.259 35.3257 372.536 31.9613 372.536 27.4896C372.536 19.654 378.884 13.3233 386.744 13.3233V5.48692C374.528 5.48692 364.67 15.315 364.67 27.4896C364.67 32.9794 366.98 38.7345 373.603 45.0652Z" fill="black"/>
</svg>
